{
    "asset" : {
        "generator" : "Khronos glTF Blender I/O v3.3.32",
        "version" : "2.0"
    },
    "scene" : 0,
    "scenes" : [
        {
            "name" : "Scene",
            "nodes" : [
                0
            ]
        }
    ],
    "nodes" : [
        {
            "mesh" : 0,
            "name" : "Plane"
        }
    ],
    "materials" : [
        {
            "doubleSided" : true,
            "name" : "Material.002",
            "pbrMetallicRoughness" : {
                "baseColorFactor" : [
                    0.3682398200035095,
                    0.8000000715255737,
                    0.20584359765052795,
                    1
                ],
                "metallicFactor" : 0,
                "roughnessFactor" : 0.5
            }
        }
    ],
    "meshes" : [
        {
            "name" : "Plane.001",
            "primitives" : [
                {
                    "attributes" : {
                        "POSITION" : 0,
                        "NORMAL" : 1,
                        "TEXCOORD_0" : 2
                    },
                    "indices" : 3,
                    "material" : 0
                }
            ]
        }
    ],
    "accessors" : [
        {
            "bufferView" : 0,
            "componentType" : 5126,
            "count" : 16641,
            "max" : [
                25.842397689819336,
                7.447483062744141,
                25.485118865966797
            ],
            "min" : [
                -25.099397659301758,
                -3.535096084306133e-06,
                -25.34908676147461
            ],
            "type" : "VEC3"
        },
        {
            "bufferView" : 1,
            "componentType" : 5126,
            "count" : 16641,
            "type" : "VEC3"
        },
        {
            "bufferView" : 2,
            "componentType" : 5126,
            "count" : 16641,
            "type" : "VEC2"
        },
        {
            "bufferView" : 3,
            "componentType" : 5123,
            "count" : 98304,
            "type" : "SCALAR"
        }
    ],
    "bufferViews" : [
        {
            "buffer" : 0,
            "byteLength" : 199692,
            "byteOffset" : 0,
            "target" : 34962
        },
        {
            "buffer" : 0,
            "byteLength" : 199692,
            "byteOffset" : 199692,
            "target" : 34962
        },
        {
            "buffer" : 0,
            "byteLength" : 133128,
            "byteOffset" : 399384,
            "target" : 34962
        },
        {
            "buffer" : 0,
            "byteLength" : 196608,
            "byteOffset" : 532512,
            "target" : 34963
        }
    ],
    "buffers" : [
        {
            "byteLength" : 729120,
            "uri" : "data:application/octet-stream;base64,"
        }
    ]
}
