{
    "asset" : {
        "generator" : "Khronos glTF Blender I/O v3.3.32",
        "version" : "2.0"
    },
    "scene" : 0,
    "scenes" : [
        {
            "name" : "Scene",
            "nodes" : [
                0
            ]
        }
    ],
    "nodes" : [
        {
            "mesh" : 0,
            "name" : "Cylinder",
            "translation" : [
                0,
                1.9023445844650269,
                0
            ]
        }
    ],
    "materials" : [
        {
            "doubleSided" : true,
            "name" : "Material.001",
            "pbrMetallicRoughness" : {
                "baseColorFactor" : [
                    1,
                    0.5149171352386475,
                    0.0033467086032032967,
                    1
                ],
                "metallicFactor" : 0,
                "roughnessFactor" : 0.6843575239181519
            }
        }
    ],
    "meshes" : [
        {
            "name" : "Cylinder",
            "primitives" : [
                {
                    "attributes" : {
                        "POSITION" : 0,
                        "NORMAL" : 1,
                        "TEXCOORD_0" : 2
                    },
                    "indices" : 3,
                    "material" : 0
                }
            ]
        }
    ],
    "accessors" : [
        {
            "bufferView" : 0,
            "componentType" : 5126,
            "count" : 526,
            "max" : [
                0.4999999701976776,
                1.5891703367233276,
                3.5016942024230957
            ],
            "min" : [
                -0.5,
                -1.9198346138000488,
                -3.493825912475586
            ],
            "type" : "VEC3"
        },
        {
            "bufferView" : 1,
            "componentType" : 5126,
            "count" : 526,
            "type" : "VEC3"
        },
        {
            "bufferView" : 2,
            "componentType" : 5126,
            "count" : 526,
            "type" : "VEC2"
        },
        {
            "bufferView" : 3,
            "componentType" : 5123,
            "count" : 2676,
            "type" : "SCALAR"
        }
    ],
    "bufferViews" : [
        {
            "buffer" : 0,
            "byteLength" : 6312,
            "byteOffset" : 0,
            "target" : 34962
        },
        {
            "buffer" : 0,
            "byteLength" : 6312,
            "byteOffset" : 6312,
            "target" : 34962
        },
        {
            "buffer" : 0,
            "byteLength" : 4208,
            "byteOffset" : 12624,
            "target" : 34962
        },
        {
            "buffer" : 0,
            "byteLength" : 5352,
            "byteOffset" : 16832,
            "target" : 34963
        }
    ],
    "buffers" : [
        {
            "byteLength" : 22184,
            "uri" : "data:application/octet-stream;base64,"
        }
    ]
}
