{
    "asset" : {
        "generator" : "Khronos glTF Blender I/O v3.3.32",
        "version" : "2.0"
    },
    "scene" : 0,
    "scenes" : [
        {
            "name" : "Scene",
            "nodes" : [
                0
            ]
        }
    ],
    "nodes" : [
        {
            "mesh" : 0,
            "name" : "ball",
            "rotation" : [
                0.7071068286895752,
                0,
                0,
                0.7071068286895752
            ],
            "scale" : [
                0.5,
                0.4999999701976776,
                0.4999999701976776
            ]
        }
    ],
    "materials" : [
        {
            "doubleSided" : true,
            "name" : "yellow.003",
            "pbrMetallicRoughness" : {
                "baseColorFactor" : [
                    0.20863646268844604,
                    0.584078311920166,
                    0.029557004570961,
                    1
                ],
                "metallicFactor" : 0,
                "roughnessFactor" : 0.11058466881513596
            }
        },
        {
            "doubleSided" : true,
            "name" : "blue.003",
            "pbrMetallicRoughness" : {
                "baseColorFactor" : [
                    0.023152519017457962,
                    0.42326727509498596,
                    0.8227857947349548,
                    1
                ],
                "metallicFactor" : 0,
                "roughnessFactor" : 0.04978293925523758
            }
        },
        {
            "doubleSided" : true,
            "name" : "material.003",
            "pbrMetallicRoughness" : {
                "baseColorFactor" : [
                    0.9046614170074463,
                    0.06847793608903885,
                    0.03820440545678139,
                    1
                ],
                "metallicFactor" : 0,
                "roughnessFactor" : 0.09234414994716644
            }
        },
        {
            "doubleSided" : true,
            "name" : "white.003",
            "pbrMetallicRoughness" : {
                "baseColorFactor" : [
                    0.8069514036178589,
                    0.9473055601119995,
                    1,
                    1
                ],
                "metallicFactor" : 0,
                "roughnessFactor" : 0.0862639769911766
            }
        },
        {
            "doubleSided" : true,
            "name" : "Material.002",
            "pbrMetallicRoughness" : {
                "baseColorFactor" : [
                    0.8796218633651733,
                    0.37626150250434875,
                    1,
                    1
                ],
                "metallicFactor" : 0,
                "roughnessFactor" : 0.5
            }
        }
    ],
    "meshes" : [
        {
            "name" : "beach_ball_yellow_0.003",
            "primitives" : [
                {
                    "attributes" : {
                        "POSITION" : 0,
                        "NORMAL" : 1,
                        "TEXCOORD_0" : 2,
                        "TEXCOORD_1" : 3
                    },
                    "indices" : 4,
                    "material" : 0
                },
                {
                    "attributes" : {
                        "POSITION" : 5,
                        "NORMAL" : 6,
                        "TEXCOORD_0" : 7,
                        "TEXCOORD_1" : 8
                    },
                    "indices" : 4,
                    "material" : 1
                },
                {
                    "attributes" : {
                        "POSITION" : 9,
                        "NORMAL" : 10,
                        "TEXCOORD_0" : 11,
                        "TEXCOORD_1" : 12
                    },
                    "indices" : 4,
                    "material" : 2
                },
                {
                    "attributes" : {
                        "POSITION" : 13,
                        "NORMAL" : 14,
                        "TEXCOORD_0" : 15,
                        "TEXCOORD_1" : 16
                    },
                    "indices" : 17,
                    "material" : 3
                },
                {
                    "attributes" : {
                        "POSITION" : 18,
                        "NORMAL" : 19,
                        "TEXCOORD_0" : 20,
                        "TEXCOORD_1" : 21
                    },
                    "indices" : 22,
                    "material" : 4
                }
            ]
        }
    ],
    "accessors" : [
        {
            "bufferView" : 0,
            "componentType" : 5126,
            "count" : 702,
            "max" : [
                0.5000013113021851,
                -0.2484017014503479,
                0.9569418430328369
            ],
            "min" : [
                -0.4999995827674866,
                -0.9999992251396179,
                -0.9569389820098877
            ],
            "type" : "VEC3"
        },
        {
            "bufferView" : 1,
            "componentType" : 5126,
            "count" : 702,
            "type" : "VEC3"
        },
        {
            "bufferView" : 2,
            "componentType" : 5126,
            "count" : 702,
            "type" : "VEC2"
        },
        {
            "bufferView" : 3,
            "componentType" : 5126,
            "count" : 702,
            "type" : "VEC2"
        },
        {
            "bufferView" : 4,
            "componentType" : 5123,
            "count" : 4200,
            "type" : "SCALAR"
        },
        {
            "bufferView" : 5,
            "componentType" : 5126,
            "count" : 702,
            "max" : [
                1.0000019073486328,
                0.8660275936126709,
                0.9569418430328369
            ],
            "min" : [
                0.14333266019821167,
                -0.0004349648952484131,
                -0.9569389820098877
            ],
            "type" : "VEC3"
        },
        {
            "bufferView" : 6,
            "componentType" : 5126,
            "count" : 702,
            "type" : "VEC3"
        },
        {
            "bufferView" : 7,
            "componentType" : 5126,
            "count" : 702,
            "type" : "VEC2"
        },
        {
            "bufferView" : 8,
            "componentType" : 5126,
            "count" : 702,
            "type" : "VEC2"
        },
        {
            "bufferView" : 9,
            "componentType" : 5126,
            "count" : 702,
            "max" : [
                -0.1433289647102356,
                0.8660277128219604,
                0.9569418430328369
            ],
            "min" : [
                -0.9999998211860657,
                -0.00043404102325439453,
                -0.9569389820098877
            ],
            "type" : "VEC3"
        },
        {
            "bufferView" : 10,
            "componentType" : 5126,
            "count" : 702,
            "type" : "VEC3"
        },
        {
            "bufferView" : 11,
            "componentType" : 5126,
            "count" : 702,
            "type" : "VEC2"
        },
        {
            "bufferView" : 12,
            "componentType" : 5126,
            "count" : 702,
            "type" : "VEC2"
        },
        {
            "bufferView" : 13,
            "componentType" : 5126,
            "count" : 2754,
            "max" : [
                1.000002145767212,
                1.000002145767212,
                0.9900014400482178
            ],
            "min" : [
                -0.9999995827674866,
                -0.8660246729850769,
                -0.989998459815979
            ],
            "type" : "VEC3"
        },
        {
            "bufferView" : 14,
            "componentType" : 5126,
            "count" : 2754,
            "type" : "VEC3"
        },
        {
            "bufferView" : 15,
            "componentType" : 5126,
            "count" : 2754,
            "type" : "VEC2"
        },
        {
            "bufferView" : 16,
            "componentType" : 5126,
            "count" : 2754,
            "type" : "VEC2"
        },
        {
            "bufferView" : 17,
            "componentType" : 5123,
            "count" : 15288,
            "type" : "SCALAR"
        },
        {
            "bufferView" : 18,
            "componentType" : 5126,
            "count" : 518,
            "max" : [
                0.2902868390083313,
                0.2902861535549164,
                1.0000014305114746
            ],
            "min" : [
                -0.29028433561325073,
                -0.2902849316596985,
                -0.9999984502792358
            ],
            "type" : "VEC3"
        },
        {
            "bufferView" : 19,
            "componentType" : 5126,
            "count" : 518,
            "type" : "VEC3"
        },
        {
            "bufferView" : 20,
            "componentType" : 5126,
            "count" : 518,
            "type" : "VEC2"
        },
        {
            "bufferView" : 21,
            "componentType" : 5126,
            "count" : 518,
            "type" : "VEC2"
        },
        {
            "bufferView" : 22,
            "componentType" : 5123,
            "count" : 1920,
            "type" : "SCALAR"
        }
    ],
    "bufferViews" : [
        {
            "buffer" : 0,
            "byteLength" : 8424,
            "byteOffset" : 0,
            "target" : 34962
        },
        {
            "buffer" : 0,
            "byteLength" : 8424,
            "byteOffset" : 8424,
            "target" : 34962
        },
        {
            "buffer" : 0,
            "byteLength" : 5616,
            "byteOffset" : 16848,
            "target" : 34962
        },
        {
            "buffer" : 0,
            "byteLength" : 5616,
            "byteOffset" : 22464,
            "target" : 34962
        },
        {
            "buffer" : 0,
            "byteLength" : 8400,
            "byteOffset" : 28080,
            "target" : 34963
        },
        {
            "buffer" : 0,
            "byteLength" : 8424,
            "byteOffset" : 36480,
            "target" : 34962
        },
        {
            "buffer" : 0,
            "byteLength" : 8424,
            "byteOffset" : 44904,
            "target" : 34962
        },
        {
            "buffer" : 0,
            "byteLength" : 5616,
            "byteOffset" : 53328,
            "target" : 34962
        },
        {
            "buffer" : 0,
            "byteLength" : 5616,
            "byteOffset" : 58944,
            "target" : 34962
        },
        {
            "buffer" : 0,
            "byteLength" : 8424,
            "byteOffset" : 64560,
            "target" : 34962
        },
        {
            "buffer" : 0,
            "byteLength" : 8424,
            "byteOffset" : 72984,
            "target" : 34962
        },
        {
            "buffer" : 0,
            "byteLength" : 5616,
            "byteOffset" : 81408,
            "target" : 34962
        },
        {
            "buffer" : 0,
            "byteLength" : 5616,
            "byteOffset" : 87024,
            "target" : 34962
        },
        {
            "buffer" : 0,
            "byteLength" : 33048,
            "byteOffset" : 92640,
            "target" : 34962
        },
        {
            "buffer" : 0,
            "byteLength" : 33048,
            "byteOffset" : 125688,
            "target" : 34962
        },
        {
            "buffer" : 0,
            "byteLength" : 22032,
            "byteOffset" : 158736,
            "target" : 34962
        },
        {
            "buffer" : 0,
            "byteLength" : 22032,
            "byteOffset" : 180768,
            "target" : 34962
        },
        {
            "buffer" : 0,
            "byteLength" : 30576,
            "byteOffset" : 202800,
            "target" : 34963
        },
        {
            "buffer" : 0,
            "byteLength" : 6216,
            "byteOffset" : 233376,
            "target" : 34962
        },
        {
            "buffer" : 0,
            "byteLength" : 6216,
            "byteOffset" : 239592,
            "target" : 34962
        },
        {
            "buffer" : 0,
            "byteLength" : 4144,
            "byteOffset" : 245808,
            "target" : 34962
        },
        {
            "buffer" : 0,
            "byteLength" : 4144,
            "byteOffset" : 249952,
            "target" : 34962
        },
        {
            "buffer" : 0,
            "byteLength" : 3840,
            "byteOffset" : 254096,
            "target" : 34963
        }
    ],
    "buffers" : [
        {
            "byteLength" : 257936,
            "uri" : "data:application/octet-stream;base64,"
        }
    ]
}
